# xmcd CD database file
#
# Track frame offsets:
#	150
#	23278
#	29561
#	51707
#	73384
#	92607
#	118296
#	135158
#	156463
#	178189
#	204868
#	211140
#	236726
#	257187
#
# Disc length: 3568 seconds
#
# Revision: 0
# Processed by: cddbd v1.5.2PL0 Copyright (c) Steve Scherf et al.
# Submitted via: CDex 1.51
#
DISCID=cd0dee0e
DTITLE=Derrick Hodge - Live Today
DYEAR=2013
DGENRE=Jazz
TTITLE0=The Real
TTITLE1=Table Jawn
TTITLE2=Message of Hope
TTITLE3=Boro March
TTITLE4=Live Today (feat. Common)
TTITLE5=Dances with Ancestors
TTITLE6=Anthem in 7
TTITLE7=Still the One
TTITLE8=Holding Onto You (feat. Alan Hampton)
TTITLE9=Solitude
TTITLE10=Rubberband
TTITLE11=Gritty Folk
TTITLE12=Doxology (I Remember)
TTITLE13=Night Visions
EXTD=YEAR: 2013
EXTT0=
EXTT1=
EXTT2=
EXTT3=
EXTT4=
EXTT5=
EXTT6=
EXTT7=
EXTT8=
EXTT9=
EXTT10=
EXTT11=
EXTT12=
EXTT13=
PLAYORDER=
